<svg xmlns="http://www.w3.org/2000/svg" width="1080" height="1080" viewBox="0 0 1080 1080"><defs><filter id="soft" x="-60%" y="-60%" width="220%" height="220%"><feGaussianBlur stdDeviation="54"></feGaussianBlur></filter></defs><rect width="1080" height="1080" fill="#fdf8f4"></rect><circle cx="150" cy="170" r="300" fill="#ff5c8a" opacity="0.14" filter="url(#soft)"></circle><circle cx="940" cy="950" r="340" fill="#c9b6f0" opacity="0.24" filter="url(#soft)"></circle><circle cx="980" cy="150" r="200" fill="#fdd85e" opacity="0.28" filter="url(#soft)"></circle><circle cx="120" cy="900" r="220" fill="#fdd85e" opacity="0.14" filter="url(#soft)"></circle><g opacity="0.9"><circle cx="880" cy="250" r="46" fill="none" stroke="#c9b6f0" stroke-width="20"></circle><path d="M 880.0 204.0 A 46 46 0 0 1 912.5 282.5" fill="none" stroke="#fdd85e" stroke-width="20" stroke-linecap="round"></path></g><g opacity="0.9"><rect x="120" y="910.8" width="28" height="39.199999999999996" rx="11.200000000000001" fill="#c9b6f0"></rect><rect x="162" y="888.4" width="28" height="61.60000000000001" rx="11.200000000000001" fill="#ff5c8a"></rect><rect x="204" y="866" width="28" height="84" rx="11.200000000000001" fill="#fdd85e"></rect></g><g transform="translate(880 820) scale(1.7)" opacity="0.55"><path d="M 0 45 L 0 12 Q 0 0 12 0 L 58 0 Q 70 0 70 12 L 70 58 Q 70 70 58 70 L 18 70" fill="none" stroke="#ff5c8a" stroke-width="9" stroke-linecap="round" stroke-linejoin="round"></path></g><circle cx="210" cy="260" r="11" fill="#ff5c8a" opacity="0.5"></circle><circle cx="1000" cy="770" r="13" fill="#fdd85e" opacity="0.85"></circle><circle cx="150" cy="690" r="9" fill="#c9b6f0" opacity="0.7"></circle><circle cx="970" cy="470" r="10" fill="#ff5c8a" opacity="0.35"></circle><circle cx="300" cy="150" r="7" fill="#c9b6f0" opacity="0.6"></circle><circle cx="820" cy="980" r="9" fill="#ff5c8a" opacity="0.4"></circle><g transform="translate(415 278) scale(0.4883)"><g fill="none"><line x1="170" y1="188" x2="286" y2="188" stroke="#fdd85e" stroke-width="22" stroke-linecap="round"></line><line x1="170" y1="234" x2="242" y2="234" stroke="#c9b6f0" stroke-width="22" stroke-linecap="round"></line><line x1="170" y1="278" x2="214" y2="278" stroke="#c9b6f0" stroke-width="22" stroke-linecap="round"></line><circle cx="312" cy="300" r="46" fill="none" stroke="#c9b6f0" stroke-width="24"></circle><path d="M 312.0 254.0 A 46 46 0 0 1 344.5 332.5" fill="none" stroke="#fdd85e" stroke-width="24" stroke-linecap="round"></path><path d="M 120 300 L 120 164 Q 120 120 164 120 L 348 120 Q 392 120 392 164 L 392 348 Q 392 392 348 392 L 214 392" stroke="#ff5c8a" stroke-width="30" stroke-linecap="round" stroke-linejoin="round"></path></g></g><text x="540" y="632" text-anchor="middle" style="font-family:&#39;Poppins&#39;,sans-serif;font-weight:800;font-size:78px;fill:#101828;">Research-Canvas</text><text x="540" y="684" text-anchor="middle" style="font-family:&#39;Poppins&#39;,sans-serif;font-weight:500;font-size:31px;fill:#6b7484;">Your research workflow, in one place</text></svg>