<svg xmlns="http://www.w3.org/2000/svg" width="1584" height="396" viewBox="0 0 1584 396"><defs><filter id="soft" x="-60%" y="-60%" width="220%" height="220%"><feGaussianBlur stdDeviation="20"></feGaussianBlur></filter></defs><rect width="1584" height="396" fill="#fdf8f4"></rect><circle cx="1350" cy="120" r="300" fill="#c9b6f0" opacity="0.28" filter="url(#soft)"></circle><circle cx="1500" cy="360" r="240" fill="#fdd85e" opacity="0.26" filter="url(#soft)"></circle><circle cx="120" cy="340" r="220" fill="#ff5c8a" opacity="0.1" filter="url(#soft)"></circle><circle cx="1180" cy="340" r="200" fill="#ff5c8a" opacity="0.14" filter="url(#soft)"></circle><g transform="translate(1120 -30) scale(0.9180)" opacity="0.12"><g fill="none"><line x1="170" y1="188" x2="286" y2="188" stroke="#fdd85e" stroke-width="22" stroke-linecap="round"></line><line x1="170" y1="234" x2="242" y2="234" stroke="#c9b6f0" stroke-width="22" stroke-linecap="round"></line><line x1="170" y1="278" x2="214" y2="278" stroke="#c9b6f0" stroke-width="22" stroke-linecap="round"></line><circle cx="312" cy="300" r="46" fill="none" stroke="#c9b6f0" stroke-width="24"></circle><path d="M 312.0 254.0 A 46 46 0 0 1 344.5 332.5" fill="none" stroke="#fdd85e" stroke-width="24" stroke-linecap="round"></path><path d="M 120 300 L 120 164 Q 120 120 164 120 L 348 120 Q 392 120 392 164 L 392 348 Q 392 392 348 392 L 214 392" stroke="#ff5c8a" stroke-width="30" stroke-linecap="round" stroke-linejoin="round"></path></g></g><g opacity="0.8"><circle cx="1250" cy="120" r="40" fill="none" stroke="#c9b6f0" stroke-width="17"></circle><path d="M 1250.0 80.0 A 40 40 0 0 1 1278.3 148.3" fill="none" stroke="#fdd85e" stroke-width="17" stroke-linecap="round"></path></g><g opacity="0.85"><rect x="1360" y="272" width="20" height="28" rx="8" fill="#c9b6f0"></rect><rect x="1390" y="256" width="20" height="44" rx="8" fill="#ff5c8a"></rect><rect x="1420" y="240" width="20" height="60" rx="8" fill="#fdd85e"></rect></g><circle cx="1470" cy="120" r="10" fill="#ff5c8a" opacity="0.5"></circle><circle cx="1180" cy="290" r="8" fill="#fdd85e" opacity="0.7"></circle><circle cx="1520" cy="240" r="7" fill="#c9b6f0" opacity="0.7"></circle><g transform="translate(1290 240) scale(0.9)" opacity="0.5"><path d="M 0 45 L 0 12 Q 0 0 12 0 L 58 0 Q 70 0 70 12 L 70 58 Q 70 70 58 70 L 18 70" fill="none" stroke="#ff5c8a" stroke-width="9" stroke-linecap="round" stroke-linejoin="round"></path></g><g transform="translate(96 120) scale(0.3047)"><g fill="none"><line x1="170" y1="188" x2="286" y2="188" stroke="#fdd85e" stroke-width="22" stroke-linecap="round"></line><line x1="170" y1="234" x2="242" y2="234" stroke="#c9b6f0" stroke-width="22" stroke-linecap="round"></line><line x1="170" y1="278" x2="214" y2="278" stroke="#c9b6f0" stroke-width="22" stroke-linecap="round"></line><circle cx="312" cy="300" r="46" fill="none" stroke="#c9b6f0" stroke-width="24"></circle><path d="M 312.0 254.0 A 46 46 0 0 1 344.5 332.5" fill="none" stroke="#fdd85e" stroke-width="24" stroke-linecap="round"></path><path d="M 120 300 L 120 164 Q 120 120 164 120 L 348 120 Q 392 120 392 164 L 392 348 Q 392 392 348 392 L 214 392" stroke="#ff5c8a" stroke-width="30" stroke-linecap="round" stroke-linejoin="round"></path></g></g><text x="274" y="196" text-anchor="start" style="font-family:&#39;Poppins&#39;,sans-serif;font-weight:800;font-size:62px;fill:#101828;">Research-Canvas</text><text x="276" y="236" text-anchor="start" style="font-family:&#39;Poppins&#39;,sans-serif;font-weight:500;font-size:26px;fill:#6b7484;">Your research workflow, in one place</text></svg>