<svg xmlns="http://www.w3.org/2000/svg" width="1500" height="500" viewBox="0 0 1500 500"><defs><filter id="soft" x="-60%" y="-60%" width="220%" height="220%"><feGaussianBlur stdDeviation="25"></feGaussianBlur></filter></defs><rect width="1500" height="500" fill="#fdf8f4"></rect><circle cx="1300" cy="120" r="320" fill="#fdd85e" opacity="0.24" filter="url(#soft)"></circle><circle cx="1420" cy="420" r="260" fill="#c9b6f0" opacity="0.26" filter="url(#soft)"></circle><circle cx="1120" cy="150" r="220" fill="#ff5c8a" opacity="0.12" filter="url(#soft)"></circle><circle cx="700" cy="470" r="300" fill="#c9b6f0" opacity="0.12" filter="url(#soft)"></circle><g transform="translate(1080 -40) scale(1.0156)" opacity="0.12"><g fill="none"><line x1="170" y1="188" x2="286" y2="188" stroke="#fdd85e" stroke-width="22" stroke-linecap="round"></line><line x1="170" y1="234" x2="242" y2="234" stroke="#c9b6f0" stroke-width="22" stroke-linecap="round"></line><line x1="170" y1="278" x2="214" y2="278" stroke="#c9b6f0" stroke-width="22" stroke-linecap="round"></line><circle cx="312" cy="300" r="46" fill="none" stroke="#c9b6f0" stroke-width="24"></circle><path d="M 312.0 254.0 A 46 46 0 0 1 344.5 332.5" fill="none" stroke="#fdd85e" stroke-width="24" stroke-linecap="round"></path><path d="M 120 300 L 120 164 Q 120 120 164 120 L 348 120 Q 392 120 392 164 L 392 348 Q 392 392 348 392 L 214 392" stroke="#ff5c8a" stroke-width="30" stroke-linecap="round" stroke-linejoin="round"></path></g></g><g opacity="0.8"><circle cx="1200" cy="140" r="44" fill="none" stroke="#c9b6f0" stroke-width="18"></circle><path d="M 1200.0 96.0 A 44 44 0 0 1 1231.1 171.1" fill="none" stroke="#fdd85e" stroke-width="18" stroke-linecap="round"></path></g><g opacity="0.85"><rect x="1320" y="299.2" width="22" height="30.799999999999997" rx="8.8" fill="#c9b6f0"></rect><rect x="1353" y="281.6" width="22" height="48.400000000000006" rx="8.8" fill="#ff5c8a"></rect><rect x="1386" y="264" width="22" height="66" rx="8.8" fill="#fdd85e"></rect></g><circle cx="1440" cy="150" r="11" fill="#ff5c8a" opacity="0.5"></circle><circle cx="1150" cy="300" r="9" fill="#fdd85e" opacity="0.7"></circle><circle cx="1470" cy="270" r="7" fill="#c9b6f0" opacity="0.7"></circle><g transform="translate(1250 250) scale(1)" opacity="0.5"><path d="M 0 45 L 0 12 Q 0 0 12 0 L 58 0 Q 70 0 70 12 L 70 58 Q 70 70 58 70 L 18 70" fill="none" stroke="#ff5c8a" stroke-width="9" stroke-linecap="round" stroke-linejoin="round"></path></g><g transform="translate(100 125) scale(0.2930)"><g fill="none"><line x1="170" y1="188" x2="286" y2="188" stroke="#fdd85e" stroke-width="22" stroke-linecap="round"></line><line x1="170" y1="234" x2="242" y2="234" stroke="#c9b6f0" stroke-width="22" stroke-linecap="round"></line><line x1="170" y1="278" x2="214" y2="278" stroke="#c9b6f0" stroke-width="22" stroke-linecap="round"></line><circle cx="312" cy="300" r="46" fill="none" stroke="#c9b6f0" stroke-width="24"></circle><path d="M 312.0 254.0 A 46 46 0 0 1 344.5 332.5" fill="none" stroke="#fdd85e" stroke-width="24" stroke-linecap="round"></path><path d="M 120 300 L 120 164 Q 120 120 164 120 L 348 120 Q 392 120 392 164 L 392 348 Q 392 392 348 392 L 214 392" stroke="#ff5c8a" stroke-width="30" stroke-linecap="round" stroke-linejoin="round"></path></g></g><text x="272" y="198" text-anchor="start" style="font-family:&#39;Poppins&#39;,sans-serif;font-weight:800;font-size:60px;fill:#101828;">Research-Canvas</text><text x="274" y="236" text-anchor="start" style="font-family:&#39;Poppins&#39;,sans-serif;font-weight:500;font-size:25px;fill:#6b7484;">Your research workflow, in one place</text></svg>