<svg xmlns="http://www.w3.org/2000/svg" width="2560" height="1440" viewBox="0 0 2560 1440"><defs><filter id="soft" x="-60%" y="-60%" width="220%" height="220%"><feGaussianBlur stdDeviation="72"></feGaussianBlur></filter></defs><rect width="2560" height="1440" fill="#fdf8f4"></rect><circle cx="260" cy="240" r="420" fill="#ff5c8a" opacity="0.13" filter="url(#soft)"></circle><circle cx="2320" cy="300" r="360" fill="#fdd85e" opacity="0.2" filter="url(#soft)"></circle><circle cx="300" cy="1220" r="380" fill="#c9b6f0" opacity="0.2" filter="url(#soft)"></circle><circle cx="2280" cy="1180" r="420" fill="#ff5c8a" opacity="0.1" filter="url(#soft)"></circle><circle cx="1280" cy="120" r="380" fill="#c9b6f0" opacity="0.1" filter="url(#soft)"></circle><g opacity="0.85"><circle cx="300" cy="360" r="66" fill="none" stroke="#c9b6f0" stroke-width="26"></circle><path d="M 300.0 294.0 A 66 66 0 0 1 346.7 406.7" fill="none" stroke="#fdd85e" stroke-width="26" stroke-linecap="round"></path></g><g opacity="0.85"><rect x="240" y="1124" width="40" height="56" rx="16" fill="#c9b6f0"></rect><rect x="300" y="1092" width="40" height="88" rx="16" fill="#ff5c8a"></rect><rect x="360" y="1060" width="40" height="120" rx="16" fill="#fdd85e"></rect></g><g transform="translate(2180 300) scale(2.4)" opacity="0.5"><path d="M 0 45 L 0 12 Q 0 0 12 0 L 58 0 Q 70 0 70 12 L 70 58 Q 70 70 58 70 L 18 70" fill="none" stroke="#ff5c8a" stroke-width="9" stroke-linecap="round" stroke-linejoin="round"></path></g><g transform="translate(300 1000) scale(2.2)" opacity="0.5"><path d="M 0 45 L 0 12 Q 0 0 12 0 L 58 0 Q 70 0 70 12 L 70 58 Q 70 70 58 70 L 18 70" fill="none" stroke="#c9b6f0" stroke-width="9" stroke-linecap="round" stroke-linejoin="round"></path></g><g opacity="0.7"><circle cx="2260" cy="1140" r="60" fill="none" stroke="#fdd85e" stroke-width="24"></circle><path d="M 2260.0 1080.0 A 60 60 0 0 1 2302.4 1182.4" fill="none" stroke="#ff5c8a" stroke-width="24" stroke-linecap="round"></path></g><circle cx="2360" cy="560" r="16" fill="#ff5c8a" opacity="0.4"></circle><circle cx="220" cy="700" r="14" fill="#fdd85e" opacity="0.5"></circle><circle cx="2340" cy="900" r="14" fill="#c9b6f0" opacity="0.6"></circle><circle cx="500" cy="180" r="12" fill="#ff5c8a" opacity="0.4"></circle><circle cx="2050" cy="220" r="10" fill="#c9b6f0" opacity="0.6"></circle><circle cx="1280" cy="1330" r="12" fill="#ff5c8a" opacity="0.3"></circle><circle cx="760" cy="1300" r="10" fill="#fdd85e" opacity="0.5"></circle><g transform="translate(558 570) scale(0.5859)"><g fill="none"><line x1="170" y1="188" x2="286" y2="188" stroke="#fdd85e" stroke-width="22" stroke-linecap="round"></line><line x1="170" y1="234" x2="242" y2="234" stroke="#c9b6f0" stroke-width="22" stroke-linecap="round"></line><line x1="170" y1="278" x2="214" y2="278" stroke="#c9b6f0" stroke-width="22" stroke-linecap="round"></line><circle cx="312" cy="300" r="46" fill="none" stroke="#c9b6f0" stroke-width="24"></circle><path d="M 312.0 254.0 A 46 46 0 0 1 344.5 332.5" fill="none" stroke="#fdd85e" stroke-width="24" stroke-linecap="round"></path><path d="M 120 300 L 120 164 Q 120 120 164 120 L 348 120 Q 392 120 392 164 L 392 348 Q 392 392 348 392 L 214 392" stroke="#ff5c8a" stroke-width="30" stroke-linecap="round" stroke-linejoin="round"></path></g></g><text x="884" y="722" text-anchor="start" style="font-family:&#39;Poppins&#39;,sans-serif;font-weight:800;font-size:118px;fill:#101828;">Research-Canvas</text><text x="887" y="786" text-anchor="start" style="font-family:&#39;Poppins&#39;,sans-serif;font-weight:500;font-size:42px;fill:#6b7484;">Your research workflow, in one place</text></svg>